<svg width="96" height="96" viewBox="0 0 96 96" fill="none" xmlns="http://www.w3.org/2000/svg" shape-rendering="crispEdges">
  <rect width="96" height="96" fill="#F7FBFF"/>
  <rect x="8" y="8" width="80" height="80" fill="#DFF4FF"/>
  <rect x="16" y="16" width="64" height="64" fill="#FFFFFF"/>
  <rect x="24" y="20" width="48" height="8" fill="#243145"/>
  <rect x="16" y="28" width="64" height="8" fill="#243145"/>
  <rect x="16" y="36" width="8" height="24" fill="#243145"/>
  <rect x="72" y="36" width="8" height="24" fill="#243145"/>
  <rect x="24" y="60" width="48" height="8" fill="#243145"/>
  <rect x="32" y="36" width="8" height="8" fill="#243145"/>
  <rect x="56" y="36" width="8" height="8" fill="#243145"/>
  <rect x="40" y="52" width="16" height="8" fill="#FF6D91"/>
  <rect x="24" y="68" width="48" height="8" fill="#53C27A"/>
  <rect x="16" y="76" width="64" height="8" fill="#53C27A"/>
  <rect x="72" y="20" width="8" height="8" fill="#FFD166"/>
  <rect x="80" y="12" width="8" height="8" fill="#FFD166"/>
  <rect x="80" y="28" width="8" height="8" fill="#FFD166"/>
  <rect x="88" y="20" width="8" height="8" fill="#FFD166"/>
  <rect x="8" y="8" width="80" height="4" fill="#243145"/>
  <rect x="8" y="84" width="80" height="4" fill="#243145"/>
  <rect x="8" y="8" width="4" height="80" fill="#243145"/>
  <rect x="84" y="8" width="4" height="80" fill="#243145"/>
</svg>
